<?xml version="1.0" encoding="UTF-8" standalone="no"?>
<svg
   xmlns:dc="http://purl.org/dc/elements/1.1/"
   xmlns:cc="http://creativecommons.org/ns#"
   xmlns:rdf="http://www.w3.org/1999/02/22-rdf-syntax-ns#"
   xmlns:svg="http://www.w3.org/2000/svg"
   xmlns="http://www.w3.org/2000/svg"
   id="svg1600"
   version="1.1"
   viewBox="0 0 28.192385 15.244563"
   height="15.244563mm"
   width="28.192385mm">
  <defs
     id="defs1594" />
  <metadata
     id="metadata1597">
    <rdf:RDF>
      <cc:Work
         rdf:about="">
        <dc:format>image/svg+xml</dc:format>
        <dc:type
           rdf:resource="http://purl.org/dc/dcmitype/StillImage" />
        <dc:title></dc:title>
      </cc:Work>
    </rdf:RDF>
  </metadata>
  <g
     transform="translate(-76.618092,-195.63962)"
     id="layer1">
    <path
       style="fill:none;stroke:#2f0f3e;stroke-width:2.67535472;stroke-linecap:butt;stroke-linejoin:miter;stroke-miterlimit:4;stroke-dasharray:none;stroke-opacity:1"
       d="m 189.23908,85.903949 c 1.48447,-0.555922 4.08186,6.62e-4 6.58636,-0.370606 2.5045,-0.371268 4.91706,-1.670339 6.77183,-3.247119 1.85476,-1.576779 3.1541,-3.432977 3.52483,-5.101978 0.37072,-1.669001 -0.18621,-3.154135 -0.74813,-5.030901 -0.56192,-1.876767 -1.1078,-4.060288 -1.57158,-5.637036 -0.46378,-1.576748 -0.83495,-2.50468 -1.76199,-3.524454 -0.92704,-1.019774 -2.41209,-2.133563 -2.41149,-3.061606 6e-4,-0.928043 1.48466,-1.670074 2.96818,-2.04083 1.48353,-0.370755 2.96895,-0.370755 4.52654,0.03723 1.55758,0.407986 2.89449,1.076441 3.72921,0.70493 0.83472,-0.37151 1.02029,-1.856136 1.48385,-2.319549 0.46355,-0.463413 1.20622,0.09359 2.18041,1.061209 0.97419,0.967621 2.36509,2.557217 3.47827,3.855926 1.11318,1.298709 2.04078,2.411826 2.78289,3.339467 0.74212,0.927642 1.29866,1.669691 2.41262,1.390908 1.11396,-0.278783 2.78335,-1.577197 3.97999,-2.515968 1.19664,-0.93877 2.32839,-1.844169 3.9967,-2.307481 1.66831,-0.463313 4.08303,-0.649061 5.93799,-0.741783 1.85495,-0.09272 3.15422,-0.09272 6.30633,-0.463577 3.15211,-0.370853 8.16522,-1.113537 12.06104,-2.041209 3.89582,-0.927673 6.67937,-2.041093 9.18345,-2.690204 2.50408,-0.649111 4.73138,-0.834719 6.95709,-0.834682 2.22572,3.8e-5 4.45313,0.185656 6.86451,0.278382 2.41138,0.09273 5.38089,0.09273 9.27612,-0.185527 3.89524,-0.278252 8.9063,-0.835037 13.82228,-1.484329 4.91598,-0.649293 9.74076,-1.391567 14.19291,-1.855302 4.45215,-0.463736 8.53472,-0.649307 12.0597,-0.829382 3.52498,-0.180076 6.86461,-0.376524 10.20344,-0.283745 3.33882,0.09278 6.86504,0.463959 10.20399,1.205987 3.33896,0.742027 6.49373,1.855476 9.55454,3.246776 3.06082,1.391299 6.02981,3.061355 8.0708,3.988959 2.04098,0.927604 3.15428,1.113154 3.80327,0.74179 0.64899,-0.371364 0.83465,-1.299679 0.2957,-1.605021 -0.53895,-0.305343 -2.24302,0.120675 -2.70698,-0.436953 -0.46396,-0.557627 0.0922,-2.040674 1.37158,-2.448406 1.2794,-0.407731 3.73,0.409134 5.21373,1.429102 1.48374,1.019968 2.22605,2.319015 2.22631,3.803004 2.7e-4,1.483989 -0.74165,3.153328 -1.66937,4.267001 -0.92771,1.113673 -2.04007,1.669853 -1.76158,3.805496 0.27849,2.135643 1.94644,5.842206 2.59594,9.181567 0.6495,3.339361 0.27849,6.307444 -0.18538,9.090822 -0.46387,2.783378 -1.02025,5.379803 -2.22627,7.792204 -1.20602,2.4124 -3.06047,4.637741 -4.45224,6.493339 -1.39177,1.8556 -2.31896,3.3391 -2.59757,4.73133 -0.2786,1.39222 0.0922,2.68989 0.59324,3.97049 0.50108,1.28059 1.35419,2.98681 1.91083,4.10008 0.55663,1.11327 0.92758,1.85518 0.7422,3.15397 -0.18539,1.29879 -0.9271,3.15307 -1.2984,5.47318 -0.3713,2.32011 -0.3713,5.10122 -0.3713,7.51345 0,2.41223 0,4.45231 -0.18554,6.8648 -0.18555,2.41249 -0.55642,5.19405 -1.11278,7.04952 -0.55637,1.85547 -1.29819,2.78274 -2.69079,3.24711 -1.39261,0.46437 -3.43101,0.46437 -4.54476,-0.83543 -1.11374,-1.29979 -1.29918,-3.89591 -1.02048,-5.56557 0.27869,-1.66966 1.02106,-2.41203 1.48429,-4.26534 0.46323,-1.85331 0.64901,-4.82576 0.64896,-7.05173 -6e-5,-2.22598 -0.18565,-3.71073 -1.01972,-3.06236 -0.83408,0.64838 -2.31917,3.43291 -3.15437,6.49491 -0.83521,3.062 -1.02066,6.40008 -1.11345,9.36896 -0.0928,2.96888 -0.0928,5.56545 -0.74223,6.49354 -0.64944,0.92809 -1.94763,0.18627 -2.59714,0.27855 -0.64951,0.0923 -0.64951,1.39076 -1.57744,2.04063 -0.92793,0.64988 -2.78154,0.83524 -3.524,-0.27914 -0.74246,-1.11439 -0.37162,-3.52484 0.46304,-6.86338 0.83467,-3.33853 2.13398,-7.60767 2.4527,-10.64936 0.31873,-3.04168 -0.50482,-5.30644 -2.08143,-7.9032 -1.57661,-2.59675 -3.98914,-5.75159 -5.56615,-8.72024 -1.577,-2.96865 -2.31915,-5.75171 -3.43177,-7.42094 -1.11262,-1.66924 -2.59721,-2.22596 -5.00937,-1.66947 -2.41215,0.55649 -5.75042,2.22562 -9.36891,3.98848 -3.6185,1.76286 -7.51319,3.61748 -10.38926,4.5454 -2.87607,0.92793 -4.73078,0.92793 -7.23636,0.64956 -2.50557,-0.27837 -5.65785,-0.83465 -10.66798,-1.76246 -5.01014,-0.9278 -11.87294,-2.22616 -16.2329,-2.96832 -4.35996,-0.74215 -6.21503,-0.92765 -7.05033,0.46401 -0.83531,1.39166 -0.64987,4.35869 -0.74258,7.14192 -0.0927,2.78323 -0.46365,5.37981 -1.39109,6.95725 -0.92744,1.57744 -2.41103,2.13379 -2.7823,2.69088 -0.37128,0.5571 0.37023,1.11323 1.11209,2.04051 0.74186,0.92728 1.48413,2.22626 1.57727,3.33911 0.0931,1.11285 -0.4633,2.04026 -1.39153,2.87586 -0.92823,0.8356 -2.22528,1.57677 -4.26748,1.85535 -2.0422,0.27858 -4.82258,0.0932 -5.47168,-0.83526 -0.64909,-0.92848 0.83464,-2.59768 1.57628,-4.45228 0.74164,-1.85461 0.74164,-3.89671 0.92719,-5.84438 0.18556,-1.94766 0.55679,-3.80385 0.18643,-4.08251 -0.37037,-0.27865 -1.48424,1.02086 -2.29932,2.78893 -0.81509,1.76808 -1.4119,4.35425 -1.87582,6.48828 -0.46393,2.13403 -0.83481,3.98842 -1.57696,5.65864 -0.74216,1.67023 -1.85463,3.15353 -3.06088,4.2672 -1.20625,1.11367 -2.50397,1.85522 -4.08189,2.22662 -1.57793,0.37139 -3.43152,0.37139 -3.61676,-0.74295 -0.18525,-1.11434 1.29818,-3.33948 2.22544,-5.47252 0.92726,-2.13304 1.29851,-4.1749 1.29846,-6.95671 -4e-5,-2.78181 -0.37131,-6.3088 -0.74236,-8.7204 -0.37106,-2.41159 -0.74221,-3.71061 -1.11318,-4.91623 -0.37097,-1.20562 -0.74221,-2.31935 -1.21713,-3.23751 -0.47493,-0.91815 -1.38026,-2.04981 -2.21488,-2.79174 -0.83462,-0.74192 -1.76238,-1.29858 -3.89618,-1.7625 -2.13381,-0.46392 -5.47226,-0.83486 -8.44103,-1.11319 -2.96877,-0.27833 -5.56548,-0.46381 -8.24592,-0.96286 -2.68044,-0.49906 -6.22517,-1.54163 -9.47224,-2.46937 -3.24708,-0.92773 -6.5859,-1.85518 -9.18349,-2.59735 -2.59759,-0.74217 -4.4525,-1.29864 -6.67923,-1.85534 -2.22673,-0.55669 -4.82323,-1.11308 -6.67912,-2.22669 -1.85589,-1.113604 -2.96874,-2.782876 -3.43243,-4.452945 -0.4637,-1.670068 -0.27814,-3.340051 9e-5,-5.009288 0.27824,-1.669236 0.64954,-3.340086 2.13401,-3.896008 z"
       id="path954"
       transform="matrix(0.14689642,0,0,0.14689642,49.371321,188.49412)" />
  </g>
</svg>
